<svg fill="#000000" role="img" viewBox="0 0 24 24" xmlns="http://www.w3.org/2000/svg"><path d="M7.15 8.685c.03.02.05.06.05.1v6.44c0 .04-.02.08-.05.1a.16.16 0 0 1-.11.05H.16a.16.16 0 0 1-.11-.05C.02 15.3 0 15.264 0 15.225V8.785c0-.04.02-.08.05-.1A.16.16 0 0 1 .16 8.635h6.88c.04 0 .08.02.11.05zM4.8 11.035a.16.16 0 0 0-.05-.1.16.16 0 0 0-.11-.05H2.56c-.04 0-.079.014-.11.04a.16.16 0 0 0-.05.1v1.95c0 .04.02.08.05.1.03.04.07.05.11.05h2.08c.04 0 .08-.01.11-.04.03-.025.048-.061.05-.1v-1.95zm16.8 0v1.94c0 .09-.07.15-.16.15h-2.08c-.09 0-.16-.06-.16-.15v-1.94c0-.08.07-.15.16-.15h2.08c.09 0 .16.06.16.15zm-2.4-2.25v1.95c0 .08-.07.15-.16.15h-2.08c-.09 0-.16-.07-.16-.15V8.785c0-.08.07-.15.16-.15h2.08c.09 0 .16.07.16.15zM24 8.785v1.95c0 .08-.07.15-.16.15h-2.08c-.09 0-.16-.07-.16-.15V8.785c0-.08.07-.15.16-.15h2.08c.09 0 .16.07.16.15zm-4.8 4.5v1.94c0 .08-.07.15-.16.15h-2.08c-.09 0-.16-.07-.16-.15v-1.95c0-.08.07-.15.16-.15h2.08c.09 0 .16.07.16.075V13.285zM24 13.285v1.94c0 .08-.07.15-.16.15h-2.08c-.09 0-.16-.07-.16-.15v-1.95c0-.08.07-.15.16-.15h2.08c.09 0 .16.07.16.075V13.285zm-8.4-4.5v1.95c0 .08-.07.15-.16.15h-2.08c-.09 0-.16-.07-.16-.15V8.785c0-.08.07-.15.16-.15h2.08c.09 0 .16.07.16.15zm0 4.5v1.94c0 .08-.07.15-.16.15h-2.08c-.09 0-.16-.07-.16-.15v-1.95c0-.08.07-.15.16-.15h2.08c.09 0 .16.07.16.075V13.285zm-2.4-.3c-.005.084-.075.15-.16.15H10.8v2.08c0 .04-.02.08-.05.11a.16.16 0 0 1-.11.04H8.56a.164.164 0 0 1-.12-.04.164.164 0 0 1-.04-.14V8.775c0-.04.01-.08.04-.1a.165.165 0 0 1 .12-.05h2.08c.04 0 .08.02.11.05.03.02.05.06.05.1v2.1h2.24c.04 0 .08.01.11.04.03.03.05.07.05.1v1.95l.0.02z"/></svg>
