<svg version="1.2" xmlns="http://www.w3.org/2000/svg" viewBox="0 0 1526 1535" width="1526" height="1535">
	<style>
		.s0 { fill: #f5333f }
	</style>
	<path id="Layer" class="s0" d="m1484.2 681.9c-8.2 0-15.8-0.3-23.8-0.3h-160.6v-638.9c0.5-38.1-47.8-42.7-76.9-42.7h-15.6c-29.1 0-77.1 4.6-76.6 42.7 0 8.2 0 15.8 0 24v614.9h-131.5v-638.9c0.5-38.1-47.8-42.7-76.9-42.7h-15.6c-29.1 0-77.1 4.6-76.6 42.7 0 8.2-0.3 15.8-0.3 24v614.9h-131.5v-638.9c0.5-38.1-47.8-42.7-76.9-42.7h-15.6c-29.1 0-77.1 4.6-76.8 42.7 0 8.2 0 15.8 0 24v614.9h-131.6v-638.9c0.5-38.1-47.7-42.7-76.9-42.7h-15.5c-29.2 0-77.2 4.6-76.7 42.7 0 8.2-0.2 15.8-0.2 24v614.9h-161.7c0 0-1.8 0-3.8 0.3h-19.9c-38.1-0.5-42.2 47.8-42.2 77.2v15.8c0 2.8 0 5.1 0.3 8.5 3.5 69 29.3 68.4 41.6 68.4 6.4 0 13 0 20.7 0h164v615.2c0 0 0 1.8 0.2 3.9v20.2c-0.5 38.3 47.5 42.4 76.6 42.4h15.6c2.8 0 5.4 0 8.7-0.5 68.7-3.6 68.2-29.7 68.2-41.9q0-9.6 0-20.7v-618.3h131.5v615.2c0 0 0 1.8 0 3.8v20.2c-0.2 38.3 47.8 42.4 76.9 42.4h15.6c2.8 0 5.1 0 8.7-0.5 68.7-3.6 68.2-29.6 68.2-41.9q0-9.6 0-20.7v-618.2h131.5v615.1c0 0 0 1.8 0.3 3.9v20.2c-0.5 38.3 47.5 42.4 76.6 42.4h15.6c2.8 0 5.1 0 8.4-0.5 69-3.6 68.2-29.7 68.2-41.9q0-9.6 0-20.7v-618.3h131.5v615.2c0 0 0 1.8 0 3.8v20.2c-0.5 38.4 47.8 42.4 76.7 42.4h15.5c2.8 0 5.1 0 8.7-0.5 68.7-3.5 68.2-29.6 68.2-41.9q0-9.6 0-20.7v-618.2h184.7c38 0.5 42.4-48.1 42.4-77.2v-15.9c0-29.4-4.4-77.7-42.4-77.1z"/>
</svg>
